<?xml version="1.0" encoding="UTF-8" standalone="no"?>
<!-- Created with Inkscape (http://www.inkscape.org/) -->

<svg
   xmlns:dc="http://purl.org/dc/elements/1.1/"
   xmlns:cc="http://creativecommons.org/ns#"
   xmlns:rdf="http://www.w3.org/1999/02/22-rdf-syntax-ns#"
   xmlns:svg="http://www.w3.org/2000/svg"
   xmlns="http://www.w3.org/2000/svg"
   xmlns:sodipodi="http://sodipodi.sourceforge.net/DTD/sodipodi-0.dtd"
   xmlns:inkscape="http://www.inkscape.org/namespaces/inkscape"
   width="64"
   height="64"
   id="svg2"
   version="1.1"
   inkscape:version="0.48.4 r9939"
   sodipodi:docname="newTabIcon.svg"
   inkscape:export-filename="C:\Users\Ich\playground\NewTabAddon\data\newTabIcon-64x64.png"
   inkscape:export-xdpi="90"
   inkscape:export-ydpi="90">
  <defs
     id="defs4" />
  <sodipodi:namedview
     id="base"
     pagecolor="#ffffff"
     bordercolor="#666666"
     borderopacity="1.0"
     inkscape:pageopacity="0.0"
     inkscape:pageshadow="2"
     inkscape:zoom="11.2"
     inkscape:cx="34.983096"
     inkscape:cy="31.223854"
     inkscape:document-units="px"
     inkscape:current-layer="layer1"
     showgrid="false"
     inkscape:window-width="1455"
     inkscape:window-height="922"
     inkscape:window-x="118"
     inkscape:window-y="48"
     inkscape:window-maximized="0" />
  <metadata
     id="metadata7">
    <rdf:RDF>
      <cc:Work
         rdf:about="">
        <dc:format>image/svg+xml</dc:format>
        <dc:type
           rdf:resource="http://purl.org/dc/dcmitype/StillImage" />
        <dc:title></dc:title>
      </cc:Work>
    </rdf:RDF>
  </metadata>
  <g
     inkscape:label="Layer 1"
     inkscape:groupmode="layer"
     id="layer1"
     transform="translate(0,-988.36218)">
    <path
       style="color:#000000;fill:#5c7282;fill-opacity:1;stroke:#373f49;stroke-width:2;stroke-linecap:butt;stroke-linejoin:miter;stroke-miterlimit:4;stroke-dashoffset:0;stroke-opacity:1;marker:none;visibility:visible;display:inline;overflow:visible;enable-background:accumulate;stroke-dasharray:none"
       d="M 31.28125 0.5625 C 27.763199 0.5625 24.9375 4.97737 24.9375 10.46875 L 24.9375 24.9375 L 10.46875 24.9375 C 4.9773707 24.9375 0.5625 27.76315 0.5625 31.28125 L 0.5625 32.71875 C 0.5625 36.23685 4.9773707 39.0625 10.46875 39.0625 L 24.9375 39.0625 L 24.9375 53.53125 C 24.9375 59.02255 27.763199 63.4375 31.28125 63.4375 L 32.71875 63.4375 C 36.236801 63.4375 39.0625 59.02255 39.0625 53.53125 L 39.0625 39.0625 L 53.53125 39.0625 C 59.022629 39.0625 63.4375 36.23685 63.4375 32.71875 L 63.4375 31.28125 C 63.4375 27.76315 59.022629 24.9375 53.53125 24.9375 L 39.0625 24.9375 L 39.0625 10.46875 C 39.0625 4.97737 36.236801 0.5625 32.71875 0.5625 L 31.28125 0.5625 z "
       transform="translate(0,988.36218)"
       id="rect2985"
       inkscape:export-filename="C:\Users\Ich\playground\NewTabAddon\data\rect2985.png"
       inkscape:export-xdpi="22"
       inkscape:export-ydpi="22" />
  </g>
</svg>
